<?xml version="1.0" encoding="UTF-8" standalone="no"?>
<svg viewBox="0 0 248 36" version="1.1" xmlns="http://www.w3.org/2000/svg" xmlns:xlink="http://www.w3.org/1999/xlink">
    <!-- Generator: Sketch 39.1 (31720) - http://www.bohemiancoding.com/sketch -->
    <title>RT_Horizontal_Black 2</title>
    <desc>Created with Sketch.</desc>
    <defs></defs>
    <g id="Page-1" stroke="none" stroke-width="1" fill="none" fill-rule="evenodd">
        <g id="RT_Horizontal_Black" fill="#FFFFFF">
            <g id="Group">
                <g id="Shape">
                    <g transform="translate(0.000000, 2.000000)">
                        <g>
                            <path d="M13.5,30.7 L10.6,22.2 C9.5,19.1 8.9,18.7 7.3,18.7 L7.3,30.7 L0,30.7 L0,0.3 L9.7,0.3 C18,0.3 20.6,3.9 20.6,9 C20.6,14.2 18.1,16.9 14.7,17.5 C15.7,17.8 16.8,19.2 17.5,20.8 C18.4,22.9 20.8,28.5 21.7,30.7 L13.5,30.7 L13.5,30.7 Z M7.2,6.7 L7.2,12.9 L9.3,12.9 C11.8,12.9 12.6,11.6 12.6,9.6 C12.6,7.4 11.5,6.7 9.2,6.7 L7.2,6.7 L7.2,6.7 Z"></path>
                            <path d="M19.8,19.4 C19.8,11 23.6,6.6 28.8,6.6 C35.5,6.6 37.5,12.7 37.5,17.9 C37.5,24.7 35.7,31 28.7,31 C23,31.1 19.8,26.5 19.8,19.4 L19.8,19.4 Z M31.9,18.7 C31.9,12.8 30.9,11.4 28.8,11.4 C26.5,11.4 25.5,14.3 25.5,18.8 C25.5,24.8 26.7,26.3 28.8,26.3 C31,26.3 31.9,24.8 31.9,18.7 L31.9,18.7 Z"></path>
                            <path d="M38.6,19.4 C38.6,11 42.4,6.6 47.6,6.6 C54.3,6.6 56.3,12.7 56.3,17.9 C56.3,24.7 54.5,31 47.5,31 C41.7,31.1 38.6,26.5 38.6,19.4 L38.6,19.4 Z M50.6,18.7 C50.6,12.8 49.6,11.4 47.5,11.4 C45.2,11.4 44.2,14.3 44.2,18.8 C44.2,24.8 45.4,26.3 47.5,26.3 C49.7,26.3 50.6,24.8 50.6,18.7 L50.6,18.7 Z"></path>
                            <path d="M63.1,31.1 C60.1,31.1 57.8,30.2 55.8,29 L57.6,24.2 C59,25.2 61.1,26.1 63.1,26.1 C65.1,26.1 65.9,25.2 65.9,23.9 C65.9,22.8 65.3,22.4 63.9,22 L61.6,21.3 C58.7,20.4 56.8,18.5 56.8,14.4 C56.8,9.7 60,6.6 64.4,6.6 C67.1,6.6 69.7,7.4 71.4,8.9 L69,13.2 C67.7,12.1 65.9,11.5 64.6,11.5 C63.3,11.5 62.6,12.2 62.6,13.2 C62.6,14 63.1,14.8 64.5,15.2 L66.5,15.8 C68.6,16.4 71.7,17.6 71.7,22.3 C71.7,28.1 68.2,31.1 63.1,31.1 L63.1,31.1 Z"></path>
                            <polygon points="87 12 82.4 12 82.4 30.6 77.3 30.6 77.3 12 72.7 12 72.7 7 87.6 7"></polygon>
                            <polygon points="89 30.7 89 7 100.5 7 100.1 12 94.1 12 94.1 16 99 16 99 20.8 94.1 20.8 94.1 25.6 100.9 25.6 100.9 30.7"></polygon>
                            <path d="M112.4,30.7 L110.3,24.1 C109.5,21.7 109.1,21.4 108,21.4 L108,30.8 L103,30.8 L103,7 L109.8,7 C115.6,7 117.5,9.8 117.5,13.8 C117.5,17.9 115.7,19.9 113.4,20.4 C114.1,20.6 114.9,21.7 115.4,22.9 C116.1,24.5 117.7,28.9 118.4,30.6 L112.4,30.6 L112.4,30.7 Z M108,12 L108,16.8 L109.4,16.8 C111.1,16.8 111.7,15.8 111.7,14.2 C111.7,12.5 110.9,12 109.4,12 L108,12 L108,12 Z"></path>
                            <polygon points="185.8 6.7 179.3 6.7 179.3 30.7 172 30.7 172 6.7 165.5 6.7 165.5 0.3 186.7 0.3"></polygon>
                            <polygon points="186.1 30.7 186.1 7 197.6 7 197.2 12 191.2 12 191.2 16 196.1 16 196.1 20.8 191.2 20.8 191.2 25.6 198 25.6 198 30.7"></polygon>
                            <polygon points="199.5 30.7 199.5 7 211 7 210.6 12 204.6 12 204.6 16 209.5 16 209.5 20.8 204.6 20.8 204.6 25.6 211.4 25.6 211.4 30.7"></polygon>
                            <polygon points="226.7 12 222.1 12 222.1 30.6 217 30.6 217 12 212.4 12 212.4 7 227.3 7"></polygon>
                            <polygon points="238.1 30.7 238.1 20.8 234.1 20.8 234.1 30.7 229 30.7 229 7 234.1 7 234.1 15.7 238.1 15.7 238.1 7 243.2 7 243.2 30.6 238.1 30.6"></polygon>
                        </g>
                        <path d="M248,4.9 C248,5.2 248,5.4 247.9,5.6 C247.8,5.8 247.7,6 247.5,6.2 C247.3,6.4 247.1,6.5 246.9,6.6 C246.7,6.7 246.4,6.7 246.2,6.7 C246,6.7 245.7,6.7 245.5,6.6 C245.3,6.5 245.1,6.4 244.9,6.2 C244.7,6 244.6,5.8 244.5,5.6 C244.4,5.4 244.4,5.1 244.4,4.9 C244.4,4.7 244.4,4.4 244.5,4.2 C244.6,4 244.7,3.8 244.9,3.6 C245.1,3.4 245.3,3.3 245.5,3.2 C245.7,3.1 246,3.1 246.2,3.1 C246.4,3.1 246.7,3.1 246.9,3.2 C247.1,3.3 247.3,3.4 247.5,3.6 C247.7,3.8 247.8,4 247.9,4.2 C248,4.4 248,4.6 248,4.9 L248,4.9 Z M247.7,4.9 C247.7,4.7 247.7,4.5 247.6,4.3 C247.5,4.1 247.4,4 247.3,3.8 C247.2,3.7 247,3.6 246.8,3.5 C246.6,3.4 246.4,3.4 246.2,3.4 C246,3.4 245.8,3.4 245.6,3.5 C245.4,3.6 245.3,3.7 245.1,3.8 C245,3.9 244.9,4.1 244.8,4.3 C244.7,4.5 244.7,4.7 244.7,4.9 C244.7,5.1 244.7,5.3 244.8,5.5 C244.9,5.7 245,5.8 245.1,6 C245.2,6.1 245.4,6.2 245.6,6.3 C245.8,6.4 246,6.4 246.2,6.4 C246.4,6.4 246.6,6.4 246.8,6.3 C247,6.2 247.1,6.1 247.3,6 C247.4,5.9 247.5,5.7 247.6,5.5 C247.6,5.3 247.7,5.1 247.7,4.9 L247.7,4.9 Z M246.6,5.9 L246.4,5.6 C246.3,5.5 246.3,5.4 246.2,5.3 C246.1,5.2 246.1,5.2 246,5.1 C246,5.1 246,5.1 245.9,5.1 C245.9,5.1 245.9,5.1 245.8,5.1 L245.8,6 L245.5,6 L245.5,4 L246.1,4 L246.4,4 C246.5,4 246.5,4.1 246.6,4.1 C246.7,4.2 246.7,4.2 246.7,4.3 L246.7,4.5 C246.7,4.7 246.7,4.8 246.6,4.9 C246.5,5 246.6,5 246.4,5 C246.4,5 246.5,5.1 246.5,5.2 C246.6,5.3 246.6,5.4 246.7,5.5 L247,6 L246.6,6 L246.6,5.9 Z M246.6,4.4 C246.6,4.3 246.6,4.2 246.5,4.2 C246.4,4.1 246.3,4.1 246.2,4.1 L246,4.1 L246,4.7 L246.2,4.7 L246.4,4.7 C246.4,4.7 246.5,4.7 246.5,4.6 C246.5,4.6 246.6,4.5 246.6,4.4 L246.6,4.4 Z"></path>
                    </g>
                    <g transform="translate(115.000000, 0.000000)" stroke="#000000" stroke-width="0.2">
                        <path d="M8,0 C8,0 8.8,2.3 12.1,2.7 C15.4,3.1 17.7,2.9 19.8,4.7 C19.8,4.7 19.8,3.2 20.3,2.8 C20.8,2.4 20.8,2.6 20.9,2.7 C21,2.8 20.3,3 20.6,4 C20.9,5 21.5,7.1 21.8,7.8 C22.1,8.5 22.3,10.3 22.1,10.9 C21.9,11.5 21.2,12.9 20.9,13.3 C20.5,13.7 18.9,15.7 18.7,16.7 C18.6,17.7 18.8,18.3 18.9,18.6 C19.1,18.9 19.8,20.6 21.6,20.7 C23.4,20.8 24,20.2 24,19.5 C24,19.5 23.6,19.6 23.5,19.6 C23.3,19.5 23.4,19.4 23.6,19.3 C23.7,19.2 23.8,18.9 24,18.5 C24.1,18.1 24.6,14.5 26.4,12.8 C28.2,11.1 30.1,10.5 30.1,10.5 C30.1,10.5 30.3,10.1 29.8,10 C29.3,9.9 28.4,9.9 28.2,9.6 C27.9,9.3 27.4,8.6 27.5,8.1 C27.6,7.6 27.8,7.8 27.9,8.1 C28,8.4 28.5,8.7 29.1,8.7 C29.1,8.7 29.2,8.6 29.1,8.6 C29,8.6 28.5,8.5 28.3,8.2 C28.1,8 27.9,7.7 28,7.4 C28,7.4 28.1,7.4 28.2,7.5 C28.4,7.6 28.6,7.6 28.8,7.6 C29,7.6 29.8,7.3 30.2,7.4 C30.6,7.4 31.1,7.6 31.2,8 C31.3,8.3 31.4,8.7 31.4,8.7 C31.4,8.7 31.7,8.3 31.6,7.9 C31.5,7.6 31.3,7.3 31.2,7.2 C31,7.1 30.8,6.8 31.2,6.8 C31.5,6.8 31.8,6.9 32,7.1 C32.2,7.3 32.6,7.8 32.9,7.8 C33.1,7.8 33.7,7.8 34.1,8 C34.4,8.2 34.6,8.3 34.6,8.6 C34.6,8.9 34.3,9.1 34.2,9.3 C34.1,9.4 34,9.8 34,9.8 C34,9.8 34.4,9.7 34.5,9.5 C34.6,9.3 34.7,9 34.9,8.9 C35.1,8.8 35.3,8.5 35.5,8.5 C35.8,8.5 35.6,8.9 35.6,9 C35.6,9.1 35.5,9.4 35.5,9.7 C35.5,10 35.5,10.4 35.2,10.6 C34.9,10.8 34,11.4 33.6,11.3 C33.1,11.3 33,10.8 32.9,10.7 C32.8,10.6 32.6,10.5 32.4,10.6 C32.2,10.7 32.1,10.8 32.1,10.9 C32.1,10.9 32.4,11.2 32.5,11.4 C32.6,11.6 32.6,12 32.7,12.1 C32.7,12.3 32.8,12.4 33,12.6 C33.2,12.8 33.5,13.4 33.4,13.6 C33.4,13.8 33.3,14.3 33.2,14.4 C33.1,14.5 33,14.6 33,14.3 C33,14 32.8,13.9 32.6,13.8 C32.4,13.7 32.3,13.6 31.9,13.6 C31.6,13.7 31.4,13.9 31.2,13.9 L30.7,13.9 C30.7,13.9 30.6,13.9 30.6,14.2 C30.6,14.5 30.6,15 31,15.5 C31.4,15.9 31.7,16.3 31.6,16.8 C31.5,17.3 31,17.5 30.4,17.3 C30.4,17.3 30.7,18 31,18.2 C31.3,18.5 32,19.1 32.1,19.4 C32.2,19.7 32.5,20.3 32.4,20.3 C32.3,20.4 31.9,20 31.7,19.9 C31.7,19.9 32.1,20.7 32.3,21.5 C32.5,22.3 32.5,23.5 32.5,23.8 C32.5,24.1 32.3,24.8 32.2,24.9 C32.1,25 32,24.9 32.1,24.7 C32.2,24.5 32.2,23.9 31.9,23.4 C31.9,23.4 31.9,24.7 31.8,25.2 C31.7,25.7 31.1,27.2 30,27.9 C28.9,28.6 28.3,28.7 28.3,28.7 C28.3,28.7 28.3,29.2 28.2,29.4 C28.1,29.6 27.7,29.9 27.7,30 C27.6,30.1 27.7,30.1 27.7,30.1 C27.7,30.1 28.1,30.1 28.5,30.2 C28.8,30.3 29.4,30.7 29.6,30.7 C29.7,30.7 30.2,30.7 30.4,30.8 C30.6,30.9 30.9,31.1 31.3,31.4 C31.7,31.7 31.9,31.7 32.1,31.7 C32.3,31.7 32.9,31.8 33.1,31.8 C33.3,31.9 33.5,31.9 33.6,32 C33.7,32.1 34,32 34.2,32.1 C34.4,32.2 34.6,32.6 34.5,33 L34.3,33 C34.2,33 34.1,32.8 34,32.8 C33.9,32.8 33.4,32.8 33.3,32.7 C33.2,32.6 32.9,32.5 32.8,32.5 L32.3,32.5 C32.3,32.5 32.5,33 32.7,33.1 C32.9,33.2 33.2,33.6 33.4,33.6 C33.6,33.7 34.1,33.8 34.2,34 C34.3,34.2 34.3,34.6 34,34.8 C34,34.8 33.9,34.4 33.7,34.4 C33.5,34.3 32.8,34.3 32.6,34.2 C32.4,34.1 32.2,33.9 32.2,33.7 C32.1,33.5 32.1,33.2 31.8,33.1 C31.8,33.1 31.7,33.9 31.8,34 C31.8,34.1 31.9,34.2 31.9,34.3 C31.9,34.4 32,34.8 31.9,34.9 C31.8,35 31.7,35.1 31.7,35.1 C31.7,35.1 31.7,34.9 31.6,34.8 C31.5,34.7 31.3,34.5 31.2,34.4 C31.1,34.3 31.1,34 31.1,33.8 C31.2,33.6 31.2,33.3 31.1,33.1 C31,32.9 30.8,32.5 30.6,32.4 C30.4,32.3 30.1,32.3 30,32.3 C29.9,32.4 29.8,32.6 29.6,32.7 C29.4,32.8 29.1,32.8 29,32.9 C28.9,33 28.6,33.2 28.7,33.6 C28.7,33.6 28.4,33.5 28.3,33.2 C28.2,32.8 28.4,32.6 28.6,32.4 C28.8,32.3 29.2,32.1 29.3,32 C29.3,32 29.2,31.7 29.4,31.6 L29.4,31.5 C29.4,31.5 28.7,31.1 28.3,31 C27.9,30.9 27.1,30.9 26.9,30.9 C26.9,30.9 26.7,31.7 26.5,31.8 L26.3,31.8 C26.3,31.8 26.2,31.4 26.1,31.1 C26,30.9 25.9,29.9 26,29.7 L25.9,29.7 C25.9,29.7 25.8,30.4 25.5,30.6 C25.2,30.9 24.9,31 24.7,31 C24.6,31.1 24.1,31.4 24,31.6 C24,31.6 24.9,32.3 25.1,32.7 C25.3,33.1 25.4,33.5 25.6,33.5 C25.8,33.6 26.3,33.6 26.5,33.7 C26.7,33.8 26.8,34 26.9,34 L27.6,34 C27.8,34 28.4,34.2 28.7,34.3 C29,34.4 29.4,34.5 29.6,34.5 C29.8,34.5 30.3,34.6 30.5,35.3 L30.3,35.3 C30.3,35.3 30.2,35 30.1,35.1 C29.9,35.2 29.5,35.2 29.3,35.2 C29.3,35.2 29.6,35.5 29.6,35.8 L29.4,35.8 C29.4,35.8 29.2,35.6 29,35.6 L27.6,35.6 C27.4,35.6 27.2,35.4 27,35.3 C26.8,35.2 26,35.1 25.8,35 C25.6,34.9 24.9,34.9 24.7,34.9 C24.5,35 24.2,35.1 24,35.1 C23.8,35.2 23.3,35.2 23.1,35.2 C23,35.2 22.7,35.3 22.5,35.6 C22.5,35.6 22.2,35.6 22.4,35.4 C22.5,35.1 22.7,34.7 23.2,34.6 C23.6,34.5 23.8,34.5 23.9,34.4 C24,34.3 24.2,34.1 24.3,34 C24.4,33.9 24.4,33.6 24.5,33.4 C24.6,33.2 24.4,32.9 24.2,32.7 C24.1,32.6 23.4,31.9 23.2,31.9 C23.1,31.9 22.9,32 22.9,32.1 C22.8,32.2 22.7,32.5 22.7,32.5 L22.6,32.5 C22.6,32.5 22.5,31.8 22.7,31.5 C22.9,31.2 23.3,30.9 23.4,30.8 C23.5,30.6 23.7,30.2 23.7,30.2 C23.7,30.2 23.3,29.7 23.1,29.5 C23,29.3 22.9,28.3 22.9,28.3 C22.9,28.3 20.5,27.3 20.2,27 C19.9,26.7 17.7,24.8 17.1,23.1 C16.4,21.5 16.3,19.9 16.3,19.9 L16.2,19.9 C16.2,19.9 16.2,21.4 16.3,22.2 C16.4,23.1 16.9,27.4 16.4,29.8 C15.9,32.2 15,34.4 12.6,35.5 C12.6,35.5 12.3,35.4 12.6,35.3 C12.9,35.1 13.7,34.7 13.9,34.1 C14.1,33.5 14.6,31.5 14.5,30.4 C14.4,29.3 13.5,26.1 13.2,24.9 C12.8,23.7 12.6,20.8 12.8,20.2 C12.8,20.2 11.7,23 11.9,24.9 C12,26.8 12.1,28.1 12.7,29.9 C13.3,31.7 13.4,33.3 12.8,33.2 C12.8,33.2 12.8,32.2 12.3,31.3 C11.8,30.4 9.6,26.9 9.3,25.2 C9,23.4 8.9,22.1 9.2,21.5 C9.2,21.5 8.1,23.6 7.2,24.4 C6.6,25 5.8,25.6 5.2,25.8 C4.5,26 4.3,25.9 4.3,25.7 C4.3,25.7 6.4,25.2 6.8,22.5 C6.9,21.5 7.5,18.1 7.9,17.5 C7.9,17.5 5.2,19.7 3.8,20.3 C2.4,20.9 1.8,20.9 1,20.9 C1,20.9 0.7,20.7 1.2,20.6 C1.7,20.5 2.9,20.2 3.6,18.5 C4.2,17.1 5.4,12.7 7,11 C8.2,9.7 9.2,9 9.2,9 C9.2,9 6.7,9.5 5.3,8.9 C4.1,8.4 3.6,7.8 3.5,7.4 C3.3,7 3.8,7.3 3.9,7.5 C4.1,7.6 5.2,8.3 6.4,7.9 C7.6,7.5 10,6.1 10.8,5.8 C11.6,5.4 13.4,4.7 14.6,4.8 C14.6,4.8 11.1,4.3 9.6,2.5 C8.4,1.7 7.8,0.4 8,0 L8,0 Z"></path>
                        <g transform="translate(34.000000, 8.000000)">
                            <path d="M19.6,9.8 C19.4,9.8 19.3,10.1 19.3,10.3 C19.4,10.5 19.5,10.7 19.8,10.6 C20.1,10.5 20,10.2 20,10.1 C19.9,9.9 19.7,9.8 19.6,9.8 L19.6,9.8 Z"></path>
                            <path d="M2.3,12.8 C2.4,12.9 2.8,13.2 3,13.7 C3,13.7 3,13 3.2,12.8 C3.4,12.6 3.5,12.5 3.6,12.5 C3.7,12.5 4,12.7 4.1,12.8 C4.3,12.9 4.6,13.4 4.7,13.5 C4.7,13.5 4.8,13.1 4.9,12.8 C5,12.6 5.2,12.3 5.3,12.3 C5.5,12.2 5.8,12.4 5.9,12.5 C6,12.6 6.5,13.1 6.6,13.1 C6.6,13.1 6.7,12.5 7,12.2 C7.3,11.9 7.5,11.6 8,11.8 C8.5,11.9 8.9,12.6 8.9,12.6 C8.9,12.6 9.1,11.8 9.4,11.5 C9.7,11.2 10,11 10.3,11.1 C10.6,11.1 11,11.3 11.3,11.8 C11.3,11.8 11.4,11.2 11.6,10.9 C11.8,10.6 12.1,10.6 12.3,10.6 C12.5,10.6 13,11 13.2,11.4 C13.2,11.4 13.3,10.7 13.5,10.4 C13.7,10.1 13.8,9.9 14.1,9.9 C14.3,9.9 14.6,10.1 14.9,10.3 C15.1,10.6 15.2,10.8 15.3,10.9 C15.4,11 15.5,11.2 15.5,11.2 C15.5,11.2 15.7,11.1 15.9,11.1 C16.1,11.1 16.4,10.9 16.7,10.8 C17,10.7 17.7,10.5 18.2,10.1 C18.2,10.1 18.8,10.9 19.2,11 C19.6,11.1 20.1,11 20.1,10.4 C20.1,10.4 20,10.8 19.6,10.8 C19.2,10.8 19,10.5 19,10.1 C19,9.7 19.4,9.6 19.6,9.6 C19.8,9.6 20,9.7 20.1,9.9 C20.1,9.9 19.9,9.1 19.8,8.7 C19.7,8.3 19.6,8 19.4,7.7 C19.3,7.4 19,6.6 18.9,6.4 C18.8,6.2 18.4,5.6 18.3,5.5 C18.2,5.4 18.1,5.3 17.9,5.4 C17.7,5.5 16.4,6.1 16.1,6.3 C15.9,6.4 15.2,6.7 14.8,6.8 C14.7,6.8 14.7,6.9 14.6,6.9 C14.6,6.9 14.6,6.9 14.5,6.9 C14.2,7 13.2,7.4 13,7.5 C12.8,7.6 10.8,8.4 10.4,8.6 C10,8.8 8.7,9.4 8.3,9.5 C7.9,9.6 5.9,10.3 5.2,10.6 C4.5,10.8 3.7,11 3,11.1 C2.3,11.2 2,11.2 1.3,11.2 C1,11.2 0.6,10.9 0.9,10.6 C1.2,10.3 1.9,9.8 2.1,9.7 C2.3,9.6 2.4,9.6 2.4,9.7 C2.4,9.7 2.3,9.7 2.2,9.8 C2.1,9.9 2,9.9 1.9,10 C1.7,10.1 1.4,10.4 1.4,10.5 C1.4,10.6 1.4,10.7 1.5,10.8 C1.6,10.9 1.7,10.9 2,10.7 C2.4,10.5 3.4,9.8 3.4,9.8 L3.4,9.8 C4.2,9.4 5.9,8.6 6.3,8.4 C6.7,8.2 8.2,7.6 8.6,7.5 C9.1,7.4 8.9,7.6 8.9,7.6 C8.8,7.6 8.6,7.7 8.3,7.8 C8,7.9 7.2,8.2 6.9,8.4 C6.6,8.5 5.8,8.9 5.5,9.1 C5.2,9.3 4,10 3.6,10.2 C3.2,10.4 2.4,11 2.4,11 C2.6,11 3,10.9 3.3,10.9 C3.6,10.9 4.8,10.6 5,10.5 C5.2,10.4 6.7,9.9 7.1,9.8 C7.5,9.7 10,8.7 10.3,8.5 C10.5,8.4 11.9,7.8 12.2,7.7 C12.4,7.6 12.8,7.4 13,7.4 C13.2,7.3 13.6,7.2 13.6,7.2 L13.2,7.2 C13,7.2 12.4,7.3 12.1,7.3 C11.8,7.3 11,7.5 10.8,7.5 C10.5,7.6 9.5,7.7 9.3,7.7 C9.2,7.7 9.1,7.7 9.1,7.6 C9.1,7.5 9,7.4 9,7.4 C9,7.4 8.9,7.3 8.8,7.2 C8.7,7 8.5,7.2 8.3,7.2 C8.1,7.2 7.6,7.4 7.3,7.5 C7,7.6 6.5,7.8 6.2,7.9 C5.8,8 4.9,8.4 4.6,8.5 C4.3,8.6 3.5,9 3.2,9.1 C3,9.2 2.6,9.4 2.4,9.5 C2.2,9.6 1.5,10.1 1.3,10.2 C1.1,10.3 0.6,10.8 0.5,11 C0.4,11.2 0.3,11.3 0.5,11.7 C0.6,12.1 0.9,12.8 1,12.9 C1.1,13 1.4,13.5 1.4,13.5 C1.4,13.5 1.5,13.1 1.6,13 C2,12.6 2.2,12.7 2.3,12.8 L2.3,12.8 Z"></path>
                            <path d="M20.5,11 C20.1,11.7 19.4,11.5 19.1,11.5 C18.8,11.4 18.4,11.2 18.3,11 C18.1,10.8 18.1,10.9 18,10.9 C17.9,11 18.1,11.3 18.2,11.5 C18.3,11.7 18.4,11.8 18.2,12 C18,12.2 17.1,13.1 17.1,13.1 C17.7,14.5 17,15 16.9,15.1 C16.7,15.2 16.5,15.1 16.5,15.1 C16.5,15.5 16.2,15.8 16,16 C15.8,16.2 15.1,16.2 15.1,16.2 C15.1,16.7 15,17 14.6,17.2 C14.3,17.4 13.9,17.2 13.9,17.2 C13.9,17.6 13.6,18 13.4,18.1 C13.2,18.2 12.8,18.1 12.8,18.1 C12.8,18.3 12.5,18.8 12.3,18.9 C12.2,19 11.6,18.9 11.6,18.9 C11.7,19.2 11.2,19.6 10.9,19.7 C10.6,19.8 10.2,19.5 10.2,19.5 C10.3,20.2 9.5,20.4 9.3,20.5 C9,20.6 8.5,20.3 8.5,20.3 C8.4,21 7.9,21 7.7,21 C7.5,21 6.9,20.7 6.9,20.7 C6.9,20.7 6.9,21 6.6,21.2 C6.3,21.4 5.6,20.8 5.6,20.8 C5.2,20.8 5.1,20.7 5.1,20.7 C5.3,21.1 6.3,22 6.7,22.1 C7.2,22.3 8.4,22.2 9.8,21.8 C11.3,21.4 12.6,20.5 13.4,20.1 C14.1,19.7 15.1,19.1 16.2,18.2 C17.4,17.3 19,15.7 19.5,15.2 C20,14.7 21,13.4 21.2,12.8 C21.4,12.2 21.3,12 21.2,11.8 C20.9,11.5 20.5,11 20.5,11 L20.5,11 Z"></path>
                            <path d="M7.6,14.6 L7.2,14.6 C6.8,14.9 5.7,15.1 5.7,15.1 C5.7,15.3 5.6,15.9 5.5,16 C5.3,16.1 5.1,16 5.1,16 C5.1,16.2 5.1,17.1 5,17.3 C4.9,17.4 4.6,17.4 4.6,17.4 C4.6,17.4 4.7,17.8 4.8,18.1 C4.8,18.4 4.7,18.6 4.7,18.6 C4.8,18.7 4.8,19 4.8,19 C4.9,19.1 5,19.4 5,19.4 C5.1,19.3 5.3,19.3 5.3,19.3 C5.3,19.3 5,19 5,18.4 C5,17.8 5.5,17.1 5.8,16.7 C6,16.3 7.6,14.6 7.6,14.6 L7.6,14.6 Z"></path>
                            <path d="M14.7,6.9 C14.8,6.9 14.8,6.9 14.9,6.8 C14.8,6.9 14.7,6.9 14.7,6.9 L14.7,6.9 Z"></path>
                            <path d="M16.6,1 C16.6,0.9 16.4,0.8 16.3,0.7 C16.1,0.6 15.9,0.5 15.8,0.5 C15.6,0.5 15.4,0.6 15.2,0.7 C15,0.8 15,0.9 14.9,1.1 C14.9,1.3 14.8,1.5 14.6,1.6 C14.4,1.7 14.1,1.7 13.9,1.6 C13.7,1.5 13.7,1.4 13.5,1.2 C13.4,1 13.3,0.8 13,0.8 C12.7,0.8 12.3,0.9 12.1,1.1 C11.9,1.3 11.8,1.5 11.8,2 C11.8,2.5 11.8,2.9 11.9,3.2 C12,3.6 12.2,3.9 12.6,3.9 L13.9,3.9 C14,3.9 14.2,3.8 14.3,4.2 C14.3,4.6 14.6,6.4 14.6,6.4 C14.6,6.4 14.8,6.4 15,6.3 C15.2,6.2 15.4,6.1 15.4,6.1 C15.4,6.1 15.3,5.5 15.2,5.2 C15.2,4.9 15.1,4.7 15.1,4.6 C15.1,4.6 14.9,4.1 14.8,4.1 C14.7,4 14.6,3.9 14.6,3.9 C14.6,3.9 14.6,3.8 14.8,3.8 C14.9,3.8 15.5,3.6 15.7,3.6 C15.9,3.6 16.3,3.6 16.4,3.5 C16.5,3.5 16.7,3.5 16.8,3.3 C16.9,3.1 16.9,2.9 16.9,2.5 C16.7,2.4 16.7,1.3 16.6,1 L16.6,1 Z M13.4,2.8 C13.3,2.9 13.2,3.1 13.1,3.1 L12.7,3.1 C12.5,3.1 12.4,2.8 12.4,2.7 C12.4,2.5 12.5,2.4 12.6,2.3 C12.8,2.2 12.9,2.2 12.9,2.2 C13.1,2.2 13.3,2.3 13.3,2.4 C13.4,2.5 13.4,2.7 13.4,2.8 L13.4,2.8 Z M16,2.5 C16,2.7 15.9,2.7 15.8,2.7 C15.6,2.7 15.5,2.7 15.4,2.6 C15.3,2.5 15.2,2.4 15.2,2.2 C15.2,2 15.4,1.9 15.5,1.8 L15.9,1.8 C16,1.9 16.1,2 16.1,2.1 C16.1,2.4 16,2.4 16,2.5 L16,2.5 Z"></path>
                            <path d="M19.8,10.6 C19.5,10.7 19.4,10.5 19.3,10.3 C19.2,10.1 19.4,9.9 19.6,9.8 C19.8,9.8 20,9.9 20,10 C20,10.2 20.1,10.5 19.8,10.6 L19.8,10.6 Z"></path>
                            <path d="M15.4,11.2 C15.4,11.2 15.1,10.4 14.6,10.1 C14.2,9.8 13.9,10.1 13.7,10.6 C13.5,11.1 13.4,11.7 13.4,11.7 L13.3,11.7 C13.3,11.7 13.2,11.3 12.7,10.9 C12.3,10.5 11.9,10.8 11.8,11 C11.6,11.2 11.5,11.8 11.5,12.1 C11.5,12.2 11.4,12.3 11.4,12.3 L11.3,12.3 C11.3,12.3 11.1,11.5 10.5,11.3 C9.9,11.1 9.6,11.4 9.3,11.8 C9,12.2 9,13 9,13 L9,13 L9,13 C9,13 8.9,12.9 8.8,12.8 C8.7,12.6 8.4,12.2 8.1,12.1 C7.6,11.9 7.4,12 7,12.5 C6.6,13 6.8,13.7 6.8,13.7 L6.7,13.7 C6.6,13.5 6,12.8 5.8,12.7 C5.3,12.5 5.2,12.4 5,13 C4.7,13.5 4.8,14 4.8,14 C4.6,14 4.6,13.9 4.6,13.8 C4.5,13.7 4.3,13.3 3.9,13 C3.5,12.7 3.3,12.9 3.2,13.2 C3.1,13.5 3,14.3 3,14.3 L2.9,14.3 C2.7,14 2.3,13.4 2.1,13.2 C1.9,13 1.8,13 1.7,13.2 C1.7,13.3 1.7,13.4 1.6,13.5 C1.6,13.7 1.6,13.9 1.7,14.1 C1.8,14.4 2,15 2.1,15.1 C2.3,15.2 2.6,15.3 2.8,15.3 C3,15.3 3.1,15.2 3,15.1 C2.9,15 2.9,14.6 2.9,14.6 L3,14.6 C3.1,15 3.3,15.2 4,15.2 C4.7,15.2 5,14.8 5,14.8 C4.8,14.7 4.7,14.4 4.7,14.4 L4.8,14.4 C5,15 5.6,14.8 5.9,14.7 C6.2,14.6 6.7,14.3 6.7,14.3 C6.7,14.3 6.6,14.1 6.7,14.1 C6.8,14.1 6.9,14.3 6.9,14.3 C7.9,14.3 8.9,13.7 8.9,13.7 C9.6,13.8 10.5,13.5 10.8,13.3 C11.2,13.1 11,13 11.5,13 C12,13 12.6,12.8 12.8,12.6 C13,12.4 13.2,12.2 13.5,12.2 C13.9,12.1 14.6,11.9 14.9,11.7 C15,11.7 15,11.6 15.1,11.6 C15.5,11.3 15.4,11.2 15.4,11.2 L15.4,11.2 Z"></path>
                            <path d="M4.2,15.8 C4.1,15.9 3.9,16.2 4,16.6 C4,16.6 3.8,16.8 3.7,17.1 C3.6,17.4 3.7,17.6 3.6,17.9 C3.5,18.1 3.8,18.8 3.8,18.9 C3.9,19.1 4.5,20.4 5.2,20.5 C5.2,20.5 5,20.2 4.9,20 C4.8,19.8 4.7,19.7 4.8,19.7 C4.8,19.7 5.2,20.9 6.3,20.9 C6.3,20.9 6.5,20.8 6.5,20.6 C6.5,20.4 6.4,20.3 6.3,20.2 C6.2,20.1 6.2,20 6.3,20 C6.3,20 6.7,20.7 7.3,20.7 C7.9,20.7 8,20.4 8,20 C8,20 7.9,19.8 7.9,19.7 L8,19.7 C8,19.7 8.2,20 8.6,20.2 C9,20.3 9.5,20.1 9.6,20 C9.7,19.8 9.8,19.6 9.8,19.2 L9.9,19.2 C9.9,19.2 10.2,19.5 10.4,19.6 C10.6,19.7 10.9,19.6 11,19.4 C11.1,19.3 11.3,18.9 11.2,18.6 C11.2,18.6 11.5,18.9 11.7,18.9 C11.9,18.9 12.2,18.8 12.2,18.6 C12.3,18.4 12.4,18.2 12.3,18 C12.3,18 12.3,17.9 12.4,18 C12.5,18.1 13,18.3 13.2,17.9 C13.4,17.5 13.4,17.4 13.4,17.1 C13.4,17.1 13.8,17.3 14,17.3 C14.2,17.3 14.5,17 14.5,16.8 C14.5,16.6 14.6,16.1 14.6,16.1 C14.6,16.1 14.5,16 14.6,16 C14.6,16 14.8,16.2 15.1,16.1 C15.4,16 15.9,15.8 16,15.3 C16.1,14.8 15.9,14.5 15.9,14.5 C15.9,14.5 15.9,14.4 16,14.5 C16.1,14.6 16.2,14.9 16.2,14.9 C16.2,14.9 16.6,15.1 16.8,14.8 C17,14.6 17.1,14.1 16.9,13.4 C16.7,12.8 16.2,13.3 16.1,13.4 C16,13.5 15.8,13.8 15.7,13.9 C15.7,13.9 14.8,14.3 14.3,15.1 C14.3,15.1 14.3,15.2 14.4,15.2 L14.4,15.3 C14.3,15.2 14.3,15.1 14.2,15.1 C14.1,15.1 13.4,15.4 13.2,16 C13.2,16 13.3,16.4 13.3,16.5 L13.1,16.2 C13,16.2 12.4,16.3 12.1,16.9 C12.1,16.9 12.1,17.1 12.2,17.1 C12.2,17.1 12.1,17.1 12.1,17 C12,16.9 11.4,17 11.1,17.5 C11.1,17.5 11.1,17.9 11.2,18 C11.2,18 11.1,17.9 11,17.6 C11,17.6 10.3,17.5 9.6,18.3 L9.6,18.6 C9.6,18.6 9.6,18.6 9.5,18.5 C9.5,18.5 8.8,18.4 7.9,19.1 C7.9,19.1 7.2,18.8 6.3,19.3 L6.3,19.5 C6.3,19.5 6.3,19.5 6.2,19.5 C6.2,19.5 6.1,19.2 5.8,19.2 C5.5,19.2 5,19.1 4.8,19.2 L4.7,19.2 C4.7,19.2 4.4,18.8 4.1,18.7 C3.8,18.6 3.8,18.5 4,18.5 C4.2,18.5 4.4,18.6 4.4,18.6 C4.4,18.6 4.3,18.2 4.1,17.8 C3.9,17.5 4.1,17.6 4.2,17.7 C4.3,17.8 4.4,18 4.4,18.1 C4.4,18.1 4.5,17.6 4.3,17.2 C4.1,16.8 4.1,16.7 4.3,16.8 C4.4,16.9 4.6,17 4.7,16.8 C4.8,16.7 4.9,15.9 4.8,15.5 C4.8,15.5 4.8,15.4 4.9,15.5 C5,15.6 5.2,15.7 5.3,15.6 C5.4,15.4 5.4,14.9 5.4,14.9 L5.3,14.8"></path>
                        </g>
                    </g>
                </g>
            </g>
        </g>
    </g>
</svg>